<svg width="20" height="21" fill="none" xmlns="http://www.w3.org/2000/svg"><g clip-path="url(#clip0)"><path d="M17.08 2.018c-2.772-.1-4.646 1.49-5.634 4.745a3.594 3.594 0 011.48-.329c1.017 0 1.466.58 1.346 1.735-.06.7-.507 1.716-1.344 3.053-.84 1.338-1.469 2.008-1.887 2.008-1.268 0-2.031-6.07-2.29-7.728-.358-2.304-1.316-3.381-2.872-3.23C4.451 2.407 1.96 4.979 0 6.722L.94 7.95c.897-.635 1.42-.953 1.568-.953 1.56 0 2.314 5.306 3.525 9.251.813 2.178 1.787 3.267 2.961 3.267 1.887 0 4.185-1.787 6.909-5.362 2.629-3.422 3.99-6.12 4.078-8.087l.01-.008c.112-2.638-.85-3.988-2.91-4.039z" fill="#fff"/></g><defs><clipPath id="clip0"><path fill="#fff" transform="translate(0 .764)" d="M0 0h20v20H0z"/></clipPath></defs></svg>